# xmcd
#
# Track frame offsets:
#	150
#	14605
#	30158
#	45849
#	59189
#	74730
#	89529
#	104307
#	118374
#	134955
#	149536
#	162947
#	188272
#
# Disc length: 3092 seconds
#
# Revision: 1
# Processed by: cddbd v1.5.2PL0 Copyright (c) Steve Scherf et al.
# Submitted via: audiograbber 1.83.01
#
DISCID=c20c120d
DTITLE=Leki - LEKI - Multiplicity
DYEAR=1900
DGENRE=R and B
TTITLE0=Baby (feat. Nile Rodgers
TTITLE1=Candy
TTITLE2=Over the rainbow
TTITLE3=They don't know
TTITLE4=U and I
TTITLE5=Quality time
TTITLE6=DJ
TTITLE7=Laid back
TTITLE8=Rejoice
TTITLE9=Get it on
TTITLE10=Near me
TTITLE11=Transformation
TTITLE12=Gegevens track
EXTD=
EXTT0=
EXTT1=
EXTT2=
EXTT3=
EXTT4=
EXTT5=
EXTT6=
EXTT7=
EXTT8=
EXTT9=
EXTT10=
EXTT11=
EXTT12=
PLAYORDER=
